# This file uses centimeters as units for non-parametric coordinates.

mtllib banca.mtl
g default
v -2.015000 -0.450000 -0.500000
v 2.015000 -0.450000 -0.500000
v -2.015000 0.750000 -0.500000
v 2.015000 0.750000 -0.500000
v -2.015000 0.750000 -0.600000
v 2.015000 0.750000 -0.600000
v -2.015000 -0.450000 -0.600000
v 2.015000 -0.450000 -0.600000
v -2.015000 0.712013 -0.556526
v 2.015000 0.712013 -0.556526
v -2.015000 0.758997 -0.573627
v 2.015000 0.758997 -0.573627
v -2.015000 0.587987 -1.043474
v 2.015000 0.587987 -1.043474
v -2.015000 0.541003 -1.026373
v 2.015000 0.541003 -1.026373
v -1.885000 -0.450000 0.500000
v 1.885000 -0.450000 0.500000
v -1.885000 -0.350000 0.500000
v 1.885000 -0.350000 0.500000
v -1.885000 -0.350000 -0.500000
v 1.885000 -0.350000 -0.500000
v -1.885000 -0.450000 -0.500000
v 1.885000 -0.450000 -0.500000
v -2.015000 -0.400000 0.500000
v -1.885000 -0.400000 0.500000
v -2.015000 0.400000 -0.500000
v -1.885000 0.400000 -0.500000
v -2.015000 -0.400000 -0.500000
v -1.885000 -0.400000 -0.500000
v -2.015000 0.400000 -0.258327
v -2.015000 0.375008 -0.101270
v -1.885000 0.375008 -0.101270
v -1.885000 0.400000 -0.258327
v -2.015000 0.325013 0.049603
v -2.015000 0.253840 0.182750
v -1.885000 0.253840 0.182750
v -1.885000 0.325013 0.049603
v -2.015000 0.146200 0.317300
v -2.015000 0.039683 0.406266
v -1.885000 0.039683 0.406266
v -1.885000 0.146200 0.317300
v -2.015000 -0.081016 0.468759
v -2.015000 -0.206662 0.500000
v -1.885000 -0.206662 0.500000
v -1.885000 -0.081016 0.468759
v -2.015000 -1.000000 0.500000
v -1.885000 -1.000000 0.500000
v -2.015000 -0.400000 0.500000
v -1.885000 -0.400000 0.500000
v -2.015000 -0.400000 -0.600000
v -1.885000 -0.400000 -0.600000
v -2.015000 -1.000000 -0.600000
v -1.885000 -1.000000 -0.600000
v 1.885000 -0.400000 0.500000
v 2.015000 -0.400000 0.500000
v 1.885000 0.400000 -0.500000
v 2.015000 0.400000 -0.500000
v 1.885000 -0.400000 -0.500000
v 2.015000 -0.400000 -0.500000
v 1.885000 0.400000 -0.258327
v 1.885000 0.375008 -0.101270
v 2.015000 0.375008 -0.101270
v 2.015000 0.400000 -0.258327
v 1.885000 0.325013 0.049603
v 1.885000 0.253840 0.182750
v 2.015000 0.253840 0.182750
v 2.015000 0.325013 0.049603
v 1.885000 0.146200 0.317300
v 1.885000 0.039683 0.406266
v 2.015000 0.039683 0.406266
v 2.015000 0.146200 0.317300
v 1.885000 -0.081016 0.468759
v 1.885000 -0.206662 0.500000
v 2.015000 -0.206662 0.500000
v 2.015000 -0.081016 0.468759
v 1.885000 -1.000000 0.500000
v 2.015000 -1.000000 0.500000
v 1.885000 -0.400000 0.500000
v 2.015000 -0.400000 0.500000
v 1.885000 -0.400000 -0.600000
v 2.015000 -0.400000 -0.600000
v 1.885000 -1.000000 -0.600000
v 2.015000 -1.000000 -0.600000
vt 0.375000 0.000000
vt 0.625000 0.000000
vt 0.375000 0.250000
vt 0.625000 0.250000
vt 0.375000 0.500000
vt 0.625000 0.500000
vt 0.375000 0.750000
vt 0.625000 0.750000
vt 0.375000 1.000000
vt 0.625000 1.000000
vt 0.875000 0.000000
vt 0.875000 0.250000
vt 0.125000 0.000000
vt 0.125000 0.250000
vt 0.375000 0.000000
vt 0.625000 0.000000
vt 0.625000 0.250000
vt 0.375000 0.250000
vt 0.625000 0.500000
vt 0.375000 0.500000
vt 0.625000 0.750000
vt 0.375000 0.750000
vt 0.625000 1.000000
vt 0.375000 1.000000
vt 0.875000 0.000000
vt 0.875000 0.250000
vt 0.125000 0.000000
vt 0.125000 0.250000
vt 0.375000 0.000000
vt 0.625000 0.000000
vt 0.625000 0.250000
vt 0.375000 0.250000
vt 0.625000 0.500000
vt 0.375000 0.500000
vt 0.625000 0.750000
vt 0.375000 0.750000
vt 0.625000 1.000000
vt 0.375000 1.000000
vt 0.875000 0.000000
vt 0.875000 0.250000
vt 0.125000 0.000000
vt 0.125000 0.250000
vt 0.375000 0.000000
vt 0.625000 0.000000
vt 0.625000 0.060418
vt 0.375000 0.060418
vt 0.375000 0.439582
vt 0.625000 0.439582
vt 0.625000 0.500000
vt 0.375000 0.500000
vt 0.625000 0.750000
vt 0.375000 0.750000
vt 0.625000 1.000000
vt 0.375000 1.000000
vt 0.875000 0.000000
vt 0.875000 0.250000
vt 0.814581 0.250000
vt 0.775317 0.242190
vt 0.737599 0.226566
vt 0.704312 0.204325
vt 0.670675 0.170687
vt 0.648434 0.137401
vt 0.632810 0.099683
vt 0.125000 0.000000
vt 0.367190 0.099683
vt 0.351566 0.137401
vt 0.329325 0.170688
vt 0.295687 0.204325
vt 0.262401 0.226566
vt 0.224683 0.242190
vt 0.185418 0.250000
vt 0.125000 0.250000
vt 0.625000 0.283637
vt 0.375000 0.283637
vt 0.375000 0.216363
vt 0.625000 0.216363
vt 0.625000 0.392507
vt 0.375000 0.392507
vt 0.375000 0.339165
vt 0.625000 0.339166
vt 0.625000 0.160834
vt 0.375000 0.160834
vt 0.375000 0.107493
vt 0.625000 0.107493
vt 0.375000 0.000000
vt 0.625000 0.000000
vt 0.625000 0.250000
vt 0.375000 0.250000
vt 0.625000 0.500000
vt 0.375000 0.500000
vt 0.625000 0.750000
vt 0.375000 0.750000
vt 0.625000 1.000000
vt 0.375000 1.000000
vt 0.875000 0.000000
vt 0.875000 0.250000
vt 0.125000 0.000000
vt 0.125000 0.250000
vt 0.375000 0.000000
vt 0.625000 0.000000
vt 0.625000 0.060418
vt 0.375000 0.060418
vt 0.375000 0.439582
vt 0.625000 0.439582
vt 0.625000 0.500000
vt 0.375000 0.500000
vt 0.625000 0.750000
vt 0.375000 0.750000
vt 0.625000 1.000000
vt 0.375000 1.000000
vt 0.875000 0.000000
vt 0.875000 0.250000
vt 0.814581 0.250000
vt 0.775317 0.242190
vt 0.737599 0.226566
vt 0.704312 0.204325
vt 0.670675 0.170687
vt 0.648434 0.137401
vt 0.632810 0.099683
vt 0.125000 0.000000
vt 0.367190 0.099683
vt 0.351566 0.137401
vt 0.329325 0.170688
vt 0.295687 0.204325
vt 0.262401 0.226566
vt 0.224683 0.242190
vt 0.185418 0.250000
vt 0.125000 0.250000
vt 0.625000 0.283637
vt 0.375000 0.283637
vt 0.375000 0.216363
vt 0.625000 0.216363
vt 0.625000 0.392507
vt 0.375000 0.392507
vt 0.375000 0.339165
vt 0.625000 0.339166
vt 0.625000 0.160834
vt 0.375000 0.160834
vt 0.375000 0.107493
vt 0.625000 0.107493
vt 0.375000 0.000000
vt 0.625000 0.000000
vt 0.625000 0.250000
vt 0.375000 0.250000
vt 0.625000 0.500000
vt 0.375000 0.500000
vt 0.625000 0.750000
vt 0.375000 0.750000
vt 0.625000 1.000000
vt 0.375000 1.000000
vt 0.875000 0.000000
vt 0.875000 0.250000
vt 0.125000 0.000000
vt 0.125000 0.250000
vn 0.000000 0.000000 1.000000
vn 0.000000 0.000000 1.000000
vn 0.000000 0.000000 1.000000
vn 0.000000 0.000000 1.000000
vn 0.000000 1.000000 0.000000
vn 0.000000 1.000000 0.000000
vn 0.000000 1.000000 0.000000
vn 0.000000 1.000000 0.000000
vn 0.000000 0.000000 -1.000000
vn 0.000000 0.000000 -1.000000
vn 0.000000 0.000000 -1.000000
vn 0.000000 0.000000 -1.000000
vn 0.000000 -1.000000 0.000000
vn 0.000000 -1.000000 0.000000
vn 0.000000 -1.000000 0.000000
vn 0.000000 -1.000000 0.000000
vn 1.000000 0.000000 0.000000
vn 1.000000 0.000000 0.000000
vn 1.000000 0.000000 0.000000
vn 1.000000 0.000000 0.000000
vn -1.000000 0.000000 0.000000
vn -1.000000 0.000000 0.000000
vn -1.000000 0.000000 0.000000
vn -1.000000 0.000000 0.000000
vn 0.000000 0.342020 0.939693
vn 0.000000 0.342020 0.939693
vn 0.000000 0.342020 0.939693
vn 0.000000 0.342020 0.939693
vn 0.000000 0.939693 -0.342020
vn 0.000000 0.939693 -0.342020
vn 0.000000 0.939693 -0.342020
vn 0.000000 0.939693 -0.342020
vn 0.000000 -0.342021 -0.939692
vn 0.000000 -0.342021 -0.939692
vn 0.000000 -0.342021 -0.939692
vn 0.000000 -0.342021 -0.939692
vn 0.000000 -0.939693 0.342020
vn 0.000000 -0.939693 0.342020
vn 0.000000 -0.939693 0.342020
vn 0.000000 -0.939693 0.342020
vn 1.000000 0.000000 0.000000
vn 1.000000 0.000000 0.000000
vn 1.000000 0.000000 0.000000
vn 1.000000 0.000000 0.000000
vn -1.000000 0.000001 0.000000
vn -1.000000 0.000001 0.000000
vn -1.000000 0.000001 0.000000
vn -1.000000 0.000001 0.000000
vn 0.000000 0.000000 1.000000
vn 0.000000 0.000000 1.000000
vn 0.000000 0.000000 1.000000
vn 0.000000 0.000000 1.000000
vn 0.000000 1.000000 0.000000
vn 0.000000 1.000000 0.000000
vn 0.000000 1.000000 0.000000
vn 0.000000 1.000000 0.000000
vn 0.000000 0.000000 -1.000000
vn 0.000000 0.000000 -1.000000
vn 0.000000 0.000000 -1.000000
vn 0.000000 0.000000 -1.000000
vn 0.000000 -1.000000 0.000000
vn 0.000000 -1.000000 0.000000
vn 0.000000 -1.000000 0.000000
vn 0.000000 -1.000000 0.000000
vn 1.000000 0.000000 0.000000
vn 1.000000 0.000000 0.000000
vn 1.000000 0.000000 0.000000
vn 1.000000 0.000000 0.000000
vn -1.000000 0.000000 0.000000
vn -1.000000 0.000000 0.000000
vn -1.000000 0.000000 0.000000
vn -1.000000 0.000000 0.000000
vn 0.000000 0.000000 1.000000
vn 0.000000 0.000000 1.000000
vn 0.000000 0.097471 0.995238
vn 0.000000 0.097471 0.995238
vn 0.000000 0.998041 0.062557
vn 0.000000 0.998041 0.062557
vn 0.000000 1.000000 0.000000
vn 0.000000 1.000000 0.000000
vn 0.000000 0.000000 -1.000000
vn 0.000000 0.000000 -1.000000
vn 0.000000 0.000000 -1.000000
vn 0.000000 0.000000 -1.000000
vn 0.000000 -1.000000 0.000000
vn 0.000000 -1.000000 0.000000
vn 0.000000 -1.000000 0.000000
vn 0.000000 -1.000000 0.000000
vn 1.000000 0.000000 0.000000
vn 1.000000 0.000000 0.000000
vn 1.000000 0.000000 0.000000
vn 1.000000 0.000000 0.000000
vn 1.000000 0.000000 0.000000
vn 1.000000 0.000000 0.000000
vn 1.000000 0.000000 0.000000
vn 1.000000 0.000000 0.000000
vn 1.000000 0.000000 0.000000
vn 1.000000 0.000000 0.000000
vn 1.000000 0.000000 0.000000
vn -1.000000 0.000000 0.000000
vn -1.000000 0.000000 0.000000
vn -1.000000 0.000000 0.000000
vn -1.000000 0.000000 0.000000
vn -1.000000 0.000000 0.000000
vn -1.000000 0.000000 0.000000
vn -1.000000 0.000000 0.000000
vn -1.000000 0.000000 0.000000
vn -1.000000 0.000000 0.000000
vn -1.000000 0.000000 0.000000
vn -1.000000 0.000000 0.000000
vn 0.000000 0.831551 0.555449
vn 0.000000 0.831551 0.555449
vn 0.000000 0.722061 0.691829
vn 0.000000 0.722061 0.691829
vn 0.000000 0.971606 0.236606
vn 0.000000 0.971606 0.236606
vn 0.000000 0.919795 0.392400
vn 0.000000 0.919795 0.392400
vn 0.000000 0.554655 0.832080
vn 0.000000 0.554655 0.832080
vn 0.000000 0.355627 0.934628
vn 0.000000 0.355627 0.934628
vn 0.000000 0.000000 1.000000
vn 0.000000 0.000000 1.000000
vn 0.000000 0.000000 1.000000
vn 0.000000 0.000000 1.000000
vn 0.000000 1.000000 0.000000
vn 0.000000 1.000000 0.000000
vn 0.000000 1.000000 0.000000
vn 0.000000 1.000000 0.000000
vn 0.000000 0.000000 -1.000000
vn 0.000000 0.000000 -1.000000
vn 0.000000 0.000000 -1.000000
vn 0.000000 0.000000 -1.000000
vn 0.000000 -1.000000 0.000000
vn 0.000000 -1.000000 0.000000
vn 0.000000 -1.000000 0.000000
vn 0.000000 -1.000000 0.000000
vn 1.000000 0.000000 0.000000
vn 1.000000 0.000000 0.000000
vn 1.000000 0.000000 0.000000
vn 1.000000 0.000000 0.000000
vn -1.000000 0.000000 0.000000
vn -1.000000 0.000000 0.000000
vn -1.000000 0.000000 0.000000
vn -1.000000 0.000000 0.000000
vn 0.000000 0.000000 1.000000
vn 0.000000 0.000000 1.000000
vn 0.000000 0.097471 0.995238
vn 0.000000 0.097471 0.995238
vn 0.000000 0.998041 0.062557
vn 0.000000 0.998041 0.062557
vn 0.000000 1.000000 0.000000
vn 0.000000 1.000000 0.000000
vn 0.000000 0.000000 -1.000000
vn 0.000000 0.000000 -1.000000
vn 0.000000 0.000000 -1.000000
vn 0.000000 0.000000 -1.000000
vn 0.000000 -1.000000 0.000000
vn 0.000000 -1.000000 0.000000
vn 0.000000 -1.000000 0.000000
vn 0.000000 -1.000000 0.000000
vn 1.000000 0.000000 0.000000
vn 1.000000 0.000000 0.000000
vn 1.000000 0.000000 0.000000
vn 1.000000 0.000000 0.000000
vn 1.000000 0.000000 0.000000
vn 1.000000 0.000000 0.000000
vn 1.000000 0.000000 0.000000
vn 1.000000 0.000000 0.000000
vn 1.000000 0.000000 0.000000
vn 1.000000 0.000000 0.000000
vn 1.000000 0.000000 0.000000
vn -1.000000 0.000000 0.000000
vn -1.000000 0.000000 0.000000
vn -1.000000 0.000000 0.000000
vn -1.000000 0.000000 0.000000
vn -1.000000 0.000000 0.000000
vn -1.000000 0.000000 0.000000
vn -1.000000 0.000000 0.000000
vn -1.000000 0.000000 0.000000
vn -1.000000 0.000000 0.000000
vn -1.000000 0.000000 0.000000
vn -1.000000 0.000000 0.000000
vn 0.000000 0.831551 0.555449
vn 0.000000 0.831551 0.555449
vn 0.000000 0.722061 0.691829
vn 0.000000 0.722061 0.691829
vn 0.000000 0.971606 0.236606
vn 0.000000 0.971606 0.236606
vn 0.000000 0.919795 0.392400
vn 0.000000 0.919795 0.392400
vn 0.000000 0.554655 0.832080
vn 0.000000 0.554655 0.832080
vn 0.000000 0.355627 0.934628
vn 0.000000 0.355627 0.934628
vn 0.000000 0.000000 1.000000
vn 0.000000 0.000000 1.000000
vn 0.000000 0.000000 1.000000
vn 0.000000 0.000000 1.000000
vn 0.000000 1.000000 0.000000
vn 0.000000 1.000000 0.000000
vn 0.000000 1.000000 0.000000
vn 0.000000 1.000000 0.000000
vn 0.000000 0.000000 -1.000000
vn 0.000000 0.000000 -1.000000
vn 0.000000 0.000000 -1.000000
vn 0.000000 0.000000 -1.000000
vn 0.000000 -1.000000 0.000000
vn 0.000000 -1.000000 0.000000
vn 0.000000 -1.000000 0.000000
vn 0.000000 -1.000000 0.000000
vn 1.000000 0.000000 0.000000
vn 1.000000 0.000000 0.000000
vn 1.000000 0.000000 0.000000
vn 1.000000 0.000000 0.000000
vn -1.000000 0.000000 0.000000
vn -1.000000 0.000000 0.000000
vn -1.000000 0.000000 0.000000
vn -1.000000 0.000000 0.000000
s off
g pCube12
usemtl lambert7SG
f 1/1/1 2/2/2 4/4/3 3/3/4
f 3/3/5 4/4/6 6/6/7 5/5/8
f 5/5/9 6/6/10 8/8/11 7/7/12
f 7/7/13 8/8/14 2/10/15 1/9/16
f 2/2/17 8/11/18 6/12/19 4/4/20
f 7/13/21 1/1/22 3/3/23 5/14/24
usemtl lambert10SG
f 9/15/25 10/16/26 12/17/27 11/18/28
f 11/18/29 12/17/30 14/19/31 13/20/32
f 13/20/33 14/19/34 16/21/35 15/22/36
f 15/22/37 16/21/38 10/23/39 9/24/40
f 10/16/41 16/25/42 14/26/43 12/17/44
f 15/27/45 9/15/46 11/18/47 13/28/48
usemtl lambert6SG
f 17/29/49 18/30/50 20/31/51 19/32/52
f 19/32/53 20/31/54 22/33/55 21/34/56
f 21/34/57 22/33/58 24/35/59 23/36/60
f 23/36/61 24/35/62 18/37/63 17/38/64
f 18/30/65 24/39/66 22/40/67 20/31/68
f 23/41/69 17/29/70 19/32/71 21/42/72
s 1
usemtl lambert8SG
f 25/43/73 26/44/74 45/45/75 44/46/76
f 31/47/77 34/48/78 28/49/79 27/50/80
s off
f 27/50/81 28/49/82 30/51/83 29/52/84
f 29/52/85 30/51/86 26/53/87 25/54/88
f 26/44/89 30/55/90 28/56/91 34/57/92 33/58/93 38/59/94 37/60/95 42/61/96 41/62/97 46/63/98 45/45/99
f 29/64/100 25/43/101 44/46/102 43/65/103 40/66/104 39/67/105 36/68/106 35/69/107 32/70/108 31/71/109 27/72/110
s 1
f 37/73/111 36/74/112 39/75/113 42/76/114
f 33/77/115 32/78/116 35/79/117 38/80/118
f 41/81/119 40/82/120 43/83/121 46/84/122
f 31/47/77 32/78/116 33/77/115 34/48/78
f 35/79/117 36/74/112 37/73/111 38/80/118
f 39/75/113 40/82/120 41/81/119 42/76/114
f 43/83/121 44/46/76 45/45/75 46/84/122
s off
f 47/85/123 48/86/124 50/87/125 49/88/126
f 49/88/127 50/87/128 52/89/129 51/90/130
f 51/90/131 52/89/132 54/91/133 53/92/134
f 53/92/135 54/91/136 48/93/137 47/94/138
f 48/86/139 54/95/140 52/96/141 50/87/142
f 53/97/143 47/85/144 49/88/145 51/98/146
s 4
usemtl lambert9SG
f 55/99/147 56/100/148 75/101/149 74/102/150
f 61/103/151 64/104/152 58/105/153 57/106/154
s off
f 57/106/155 58/105/156 60/107/157 59/108/158
f 59/108/159 60/107/160 56/109/161 55/110/162
f 56/100/163 60/111/164 58/112/165 64/113/166 63/114/167 68/115/168 67/116/169 72/117/170 71/118/171 76/119/172 75/101/173
f 59/120/174 55/99/175 74/102/176 73/121/177 70/122/178 69/123/179 66/124/180 65/125/181 62/126/182 61/127/183 57/128/184
s 4
f 67/129/185 66/130/186 69/131/187 72/132/188
f 63/133/189 62/134/190 65/135/191 68/136/192
f 71/137/193 70/138/194 73/139/195 76/140/196
f 61/103/151 62/134/190 63/133/189 64/104/152
f 65/135/191 66/130/186 67/129/185 68/136/192
f 69/131/187 70/138/194 71/137/193 72/132/188
f 73/139/195 74/102/150 75/101/149 76/140/196
s off
f 77/141/197 78/142/198 80/143/199 79/144/200
f 79/144/201 80/143/202 82/145/203 81/146/204
f 81/146/205 82/145/206 84/147/207 83/148/208
f 83/148/209 84/147/210 78/149/211 77/150/212
f 78/142/213 84/151/214 82/152/215 80/143/216
f 83/153/217 77/141/218 79/144/219 81/154/220
