# This file uses centimeters as units for non-parametric coordinates.

mtllib vartecho.mtl
g default
v -11.000000 8.253018 11.495709
v 11.000000 8.253018 11.495709
v -11.000000 8.453019 11.495709
v 11.000000 8.453019 11.495709
v -11.000000 8.453019 2.495709
v 11.000000 8.453019 2.495709
v -11.000000 8.253018 2.495709
v 11.000000 8.253018 2.495709
vt 3.070569 0.004694
vt -2.070568 0.004694
vt 3.070569 0.978878
vt -2.070568 0.978878
vt 3.070569 1.953063
vt -2.070568 1.953063
vt 3.070569 2.927248
vt -2.070568 2.927248
vn 0.000000 1.000000 0.000000
vn 0.000000 1.000000 0.000000
vn 0.000000 1.000000 0.000000
vn 0.000000 1.000000 0.000000
vn 0.000000 -1.000000 0.000000
vn 0.000000 -1.000000 0.000000
vn 0.000000 -1.000000 0.000000
vn 0.000000 -1.000000 0.000000
s off
g vartecho:group110_pasted__pCube70
usemtl phong1SG
f 3/2/1 4/1/2 6/3/3 5/4/4
f 7/6/5 8/5/6 2/7/7 1/8/8
