# This file uses centimeters as units for non-parametric coordinates.

mtllib p1Der.mtl
g default
v 0.016667 0.000000 0.000677
v 0.016667 0.000000 0.500677
v 0.016667 2.657089 0.500677
v -2.657447 5.010621 0.500144
v -1.429651 4.821657 0.500677
v -0.669556 4.313777 0.500677
v -0.161676 3.553682 0.500677
v 0.016667 2.657089 0.000677
v -0.161676 3.553682 0.000677
v -0.669556 4.313777 0.000677
v -1.429651 4.821657 0.000677
v -2.659603 5.000000 0.000677
v -2.639778 2.400000 0.000677
v -2.607917 2.400000 0.500677
v -2.647894 0.016852 0.000677
v -2.645276 0.001753 0.500677
v -2.610841 2.401011 0.500677
v -2.635577 2.401011 0.000677
v -2.577178 2.539212 0.500677
v -2.577178 2.539212 0.000677
v -2.544051 2.439281 0.500677
v -2.544051 2.439281 0.000677
v -2.444121 2.372510 0.500677
v -2.444121 2.372510 0.000677
v 0.016667 0.000000 0.000677
v 0.016667 0.000000 0.500677
vt 0.000000 0.546438
vt 0.000000 0.409553
vt 1.000000 0.409553
vt 1.000000 0.546438
vt 0.000000 0.318090
vt 1.000000 0.318090
vt 0.000000 0.355746
vt 1.000000 0.355746
vt -0.000000 0.707905
vt -0.000000 -2.931766
vt 1.000000 -2.931766
vt 1.000000 0.707905
vt 1.000000 1.936055
vt -0.000000 1.936055
vt 1.000000 2.977230
vt 0.000000 2.977230
vt 1.000000 3.672923
vt 0.000000 3.672923
vt 1.000000 3.917216
vt 0.001066 3.931765
vt 1.000000 -2.931766
vt 1.000000 -2.908682
vt 1.000000 0.357131
vt -0.000000 -2.931766
vt 0.000000 0.357131
vt 0.000000 -2.929364
vn 0.949205 0.314658 0.000000
vn 0.781565 0.623823 0.000000
vn 0.781565 0.623823 0.000000
vn 0.949205 0.314658 0.000000
vn 0.781565 0.623823 0.000000
vn 0.441638 -0.897139 0.009848
vn 0.441638 -0.897139 0.009848
vn 0.781565 0.623823 0.000000
vn 0.441638 -0.897139 0.009848
vn -0.151194 -0.988492 0.004817
vn -0.151194 -0.988492 0.004817
vn 0.441638 -0.897139 0.009848
vn 0.998743 0.050122 0.000000
vn 1.000000 0.000000 0.000000
vn 1.000000 0.000000 0.000000
vn 0.998743 0.050122 0.000000
vn 0.998743 0.050122 0.000000
vn 0.998743 0.050122 0.000000
vn 0.923880 0.382683 0.000000
vn 0.923880 0.382683 0.000000
vn 0.923880 0.382683 0.000000
vn 0.923880 0.382683 0.000000
vn 0.707107 0.707107 0.000000
vn 0.707107 0.707107 0.000000
vn 0.707107 0.707107 0.000000
vn 0.707107 0.707107 0.000000
vn 0.331157 0.943570 -0.003145
vn 0.331185 0.943561 -0.003145
vn 0.331185 0.943561 -0.003145
vn 0.331157 0.943570 -0.003145
vn 0.149979 0.988675 -0.005366
vn 0.149979 0.988675 -0.005366
vn -0.000000 0.000000 -1.000000
vn -0.000000 0.000000 -1.000000
vn -0.000000 0.000000 -1.000000
vn -0.000000 0.000000 -1.000000
vn 0.000000 0.000000 1.000000
vn 0.000000 0.000000 1.000000
vn 0.000000 0.000000 1.000000
vn 0.000000 0.000000 1.000000
vn 0.000000 0.000000 1.000000
vn 0.000000 0.000000 1.000000
vn 0.000000 0.000000 1.000000
vn 0.000000 0.000000 1.000000
vn 0.000000 0.000000 -1.000000
vn -0.000000 0.000000 -1.000000
vn -0.000000 0.000000 -1.000000
vn 0.000000 0.000000 -1.000000
vn 0.000000 0.000000 1.000000
vn 0.000000 0.000000 1.000000
vn 0.000000 0.000000 1.000000
vn 0.000000 0.000000 1.000000
vn 0.000000 0.000000 -1.000000
vn 0.000000 0.000000 -1.000000
vn 0.000000 0.000000 -1.000000
vn 0.000000 0.000000 -1.000000
vn 0.000000 0.000000 1.000000
vn -0.000224 0.000109 1.000000
vn -0.000248 0.000121 1.000000
vn 0.000000 0.000000 1.000000
vn 0.000000 0.000000 -1.000000
vn 0.000000 0.000000 -1.000000
vn 0.000000 0.000000 -1.000000
vn 0.000000 0.000000 -1.000000
vn -0.000224 0.000109 1.000000
vn -0.000356 0.000173 1.000000
vn -0.000356 0.000173 1.000000
vn -0.000248 0.000121 1.000000
vn 0.000000 0.000000 -1.000000
vn 0.000000 0.000000 -1.000000
vn 0.000000 0.000000 -1.000000
vn 0.000000 0.000000 -1.000000
vn -0.003493 -0.999880 -0.015089
vn -0.003493 -0.999880 -0.015089
vn -0.003493 -0.999880 -0.015089
vn -0.003493 -0.999880 -0.015089
vn -0.999977 -0.006323 -0.002328
vn -0.999977 -0.006323 -0.002328
vn -0.999977 -0.006323 -0.002328
vn -0.999977 -0.006323 -0.002328
vn -0.999574 0.009770 0.027490
vn -0.999574 0.009770 0.027490
vn -0.999574 0.009770 0.027490
vn -0.999574 0.009770 0.027490
s off
g p1Der:pCube81
usemtl p1Der:phong1SG
f 19/1/1 21/2/2 22/3/3 20/4/4
f 21/2/5 23/5/6 24/6/7 22/3/8
f 23/5/9 14/7/10 13/8/11 24/6/12
f 3/9/13 2/10/14 25/11/15 8/12/16
f 3/9/17 8/12/18 9/13/19 7/14/20
f 7/14/21 9/13/22 10/15/23 6/16/24
f 6/16/25 10/15/26 11/17/27 5/18/28
f 5/18/29 11/17/30 12/19/31 4/20/32
f 8/12/33 1/21/34 15/22/35 18/23/36
f 26/24/37 3/9/38 17/25/39 16/26/40
f 3/9/41 7/14/42 19/1/43 17/25/44
f 9/13/45 8/12/46 18/23/47 20/4/48
f 7/14/49 6/16/50 21/2/51 19/1/52
f 10/15/53 9/13/54 20/4/55 22/3/56
f 6/16/57 5/18/58 23/5/59 21/2/60
f 11/17/61 10/15/62 22/3/63 24/6/64
f 5/18/65 4/20/66 14/7/67 23/5/68
f 12/19/69 11/17/70 24/6/71 13/8/72
f 26/24/73 16/26/74 15/22/75 1/21/76
f 12/19/77 13/8/78 14/7/79 4/20/80
f 18/23/81 15/22/82 16/26/83 17/25/84
