# This file uses centimeters as units for non-parametric coordinates.

mtllib atril.mtl
g default
v 0.475529 -0.995425 -0.154509
v 0.404509 -0.995425 -0.293893
v 0.293893 -0.995425 -0.404509
v 0.154509 -0.995425 -0.475529
v 0.000000 -0.995425 -0.500000
v -0.154509 -0.995425 -0.475529
v -0.293893 -0.995425 -0.404509
v -0.404509 -0.995425 -0.293893
v -0.475528 -0.995425 -0.154509
v -0.500000 -0.995425 -0.000000
v -0.475528 -0.995425 0.154508
v -0.404509 -0.995425 0.293893
v -0.293893 -0.995425 0.404508
v -0.154509 -0.995425 0.475528
v -0.000000 -0.995425 0.500000
v 0.154508 -0.995425 0.475528
v 0.293893 -0.995425 0.404508
v 0.404509 -0.995425 0.293893
v 0.475528 -0.995425 0.154508
v 0.500000 -0.995425 -0.000000
v 0.475529 -0.895425 -0.154509
v 0.404509 -0.895425 -0.293893
v 0.293893 -0.895425 -0.404509
v 0.154509 -0.895425 -0.475529
v 0.000000 -0.895425 -0.500000
v -0.154509 -0.895425 -0.475529
v -0.293893 -0.895425 -0.404509
v -0.404509 -0.895425 -0.293893
v -0.475528 -0.895425 -0.154509
v -0.500000 -0.895425 -0.000000
v -0.475528 -0.895425 0.154508
v -0.404509 -0.895425 0.293893
v -0.293893 -0.895425 0.404508
v -0.154509 -0.895425 0.475528
v -0.000000 -0.895425 0.500000
v 0.154508 -0.895425 0.475528
v 0.293893 -0.895425 0.404508
v 0.404509 -0.895425 0.293893
v 0.475528 -0.895425 0.154508
v 0.500000 -0.895425 -0.000000
v 0.000000 -0.995425 -0.000000
v 0.000000 -0.895425 -0.000000
v -0.625000 1.170425 0.337259
v 0.625000 1.170425 0.337259
v -0.625000 1.213726 0.312259
v 0.625000 1.213726 0.312259
v -0.625000 0.838726 -0.337260
v 0.625000 0.838726 -0.337260
v -0.625000 0.795425 -0.312260
v 0.625000 0.795425 -0.312260
v -0.625000 0.865425 -0.290849
v 0.625000 0.865425 -0.290849
v -0.625000 0.908726 -0.315849
v 0.625000 0.908726 -0.315849
v -0.625000 0.883726 -0.359151
v 0.625000 0.883726 -0.359151
v -0.625000 0.840425 -0.334151
v 0.625000 0.840425 -0.334151
v 0.095106 -0.945425 -0.030902
v 0.080902 -0.945425 -0.058779
v 0.058779 -0.945425 -0.080902
v 0.030902 -0.945425 -0.095106
v 0.000000 -0.945425 -0.100000
v -0.030902 -0.945425 -0.095106
v -0.058779 -0.945425 -0.080902
v -0.080902 -0.945425 -0.058779
v -0.095106 -0.945425 -0.030902
v -0.100000 -0.945425 -0.000000
v -0.095106 -0.945425 0.030902
v -0.080902 -0.945425 0.058778
v -0.058779 -0.945425 0.080902
v -0.030902 -0.945425 0.095106
v -0.000000 -0.945425 0.100000
v 0.030902 -0.945425 0.095106
v 0.058779 -0.945425 0.080902
v 0.080902 -0.945425 0.058778
v 0.095106 -0.945425 0.030902
v 0.100000 -0.945425 -0.000000
v 0.000000 -0.945425 -0.000000
v 0.080902 0.948866 -0.058779
v 0.095106 0.963989 -0.030902
v 0.058779 0.937631 -0.080902
v 0.030902 0.931386 -0.095106
v 0.000000 0.930741 -0.100000
v -0.030902 0.935758 -0.095106
v -0.058779 0.945948 -0.080902
v -0.080902 0.960313 -0.058779
v -0.095106 0.977446 -0.030902
v -0.100000 0.995671 -0.000000
v -0.095106 1.013203 0.030902
v -0.080902 1.028326 0.058778
v -0.058779 1.039560 0.080902
v -0.030902 1.045805 0.095106
v -0.000000 1.046451 0.100000
v 0.030902 1.041433 0.095106
v 0.058779 1.031243 0.080902
v 0.080902 1.016879 0.058778
v 0.095106 0.999745 0.030902
v 0.100000 0.981521 -0.000000
vt 0.284850 0.008705
vt 0.311303 0.008632
vt 0.311781 0.181594
vt 0.285327 0.181667
vt 0.332297 0.008574
vt 0.332774 0.181536
vt 0.345775 0.008537
vt 0.346253 0.181499
vt 0.350420 0.008524
vt 0.350897 0.181486
vt 0.345775 0.008537
vt 0.346253 0.181499
vt 0.332297 0.008574
vt 0.332774 0.181536
vt 0.311303 0.008632
vt 0.311781 0.181594
vt 0.284850 0.008705
vt 0.285327 0.181667
vt 0.255526 0.008786
vt 0.256003 0.181748
vt 0.226202 0.008867
vt 0.226679 0.181829
vt 0.199749 0.008940
vt 0.200226 0.181902
vt 0.178755 0.008998
vt 0.179233 0.181960
vt 0.165276 0.009035
vt 0.165754 0.181997
vt 0.160632 0.009048
vt 0.161109 0.182010
vt 0.165276 0.009035
vt 0.165754 0.181997
vt 0.178755 0.008998
vt 0.179233 0.181960
vt 0.199749 0.008940
vt 0.200226 0.181902
vt 0.226202 0.008867
vt 0.226679 0.181829
vt 0.255526 0.008786
vt 0.256003 0.181748
vt 0.255526 0.008786
vt 0.256003 0.181748
vt 0.375000 0.000000
vt 0.625000 0.000000
vt 0.625000 0.250000
vt 0.375000 0.250000
vt 0.625000 0.500000
vt 0.375000 0.500000
vt 0.625000 0.750000
vt 0.375000 0.750000
vt 0.625000 1.000000
vt 0.375000 1.000000
vt 0.875000 0.000000
vt 0.875000 0.250000
vt 0.125000 0.000000
vt 0.125000 0.250000
vt 0.375000 0.000000
vt 0.625000 0.000000
vt 0.625000 0.250000
vt 0.375000 0.250000
vt 0.625000 0.500000
vt 0.375000 0.500000
vt 0.625000 0.750000
vt 0.375000 0.750000
vt 0.625000 1.000000
vt 0.375000 1.000000
vt 0.875000 0.000000
vt 0.875000 0.250000
vt 0.125000 0.000000
vt 0.125000 0.250000
vt 0.285976 0.010817
vt 0.286051 0.017355
vt 0.041155 0.018977
vt 0.039125 0.012452
vt 0.286126 0.023893
vt 0.042683 0.025506
vt 0.286202 0.030431
vt 0.043566 0.032038
vt 0.286277 0.036969
vt 0.043724 0.038576
vt 0.286352 0.043507
vt 0.043151 0.045118
vt 0.286427 0.050045
vt 0.041909 0.051664
vt 0.286503 0.056582
vt 0.040127 0.058215
vt 0.286578 0.063120
vt 0.037987 0.064767
vt 0.286653 0.069658
vt 0.035707 0.071321
vt 0.286729 0.076196
vt 0.033515 0.077874
vt 0.286804 0.082734
vt 0.031635 0.084425
vt 0.286879 0.089272
vt 0.030258 0.090972
vt 0.286954 0.095810
vt 0.029526 0.097516
vt 0.287030 0.102348
vt 0.029518 0.104054
vt 0.287105 0.108886
vt 0.030242 0.110588
vt 0.287180 0.115424
vt 0.031635 0.117117
vt 0.287255 0.121962
vt 0.033567 0.123643
vt 0.287331 0.128500
vt 0.035857 0.130166
vt 0.287406 0.135038
vt 0.038289 0.136688
vt 0.287481 0.141576
vt 0.040630 0.143211
vt 0.626409 0.064408
vt 0.648603 0.107966
vt 0.500000 0.156250
vt 0.591842 0.029841
vt 0.548284 0.007647
vt 0.500000 -0.000000
vt 0.451716 0.007647
vt 0.408159 0.029841
vt 0.373591 0.064409
vt 0.351397 0.107966
vt 0.343750 0.156250
vt 0.351397 0.204534
vt 0.373591 0.248091
vt 0.408159 0.282659
vt 0.451716 0.304853
vt 0.500000 0.312500
vt 0.548284 0.304853
vt 0.591841 0.282659
vt 0.626409 0.248091
vt 0.648603 0.204534
vt 0.656250 0.156250
vn 0.951057 0.000000 -0.309016
vn 0.809017 0.000000 -0.587785
vn 0.809017 0.000000 -0.587785
vn 0.951057 0.000000 -0.309016
vn 0.587785 0.000000 -0.809017
vn 0.587785 0.000000 -0.809017
vn 0.309017 0.000000 -0.951057
vn 0.309017 0.000000 -0.951057
vn -0.000000 0.000000 -1.000000
vn -0.000000 0.000000 -1.000000
vn -0.309017 0.000000 -0.951056
vn -0.309017 0.000000 -0.951056
vn -0.587785 0.000000 -0.809017
vn -0.587785 0.000000 -0.809017
vn -0.809017 0.000000 -0.587785
vn -0.809017 0.000000 -0.587785
vn -0.951057 0.000000 -0.309017
vn -0.951057 0.000000 -0.309017
vn -1.000000 0.000000 0.000000
vn -1.000000 0.000000 0.000000
vn -0.951057 0.000000 0.309017
vn -0.951057 0.000000 0.309017
vn -0.809017 0.000000 0.587785
vn -0.809017 0.000000 0.587785
vn -0.587785 0.000000 0.809017
vn -0.587785 0.000000 0.809017
vn -0.309017 0.000000 0.951057
vn -0.309017 0.000000 0.951057
vn 0.000000 0.000000 1.000000
vn 0.000000 0.000000 1.000000
vn 0.309017 0.000000 0.951057
vn 0.309017 0.000000 0.951057
vn 0.587785 0.000000 0.809017
vn 0.587785 0.000000 0.809017
vn 0.809017 0.000000 0.587785
vn 0.809017 0.000000 0.587785
vn 0.951057 0.000000 0.309017
vn 0.951057 0.000000 0.309017
vn 1.000000 0.000000 0.000001
vn 1.000000 0.000000 0.000001
vn 0.000000 -1.000000 -0.000000
vn 0.000000 -1.000000 -0.000000
vn 0.000000 -1.000000 -0.000000
vn 0.000000 -1.000000 -0.000000
vn 0.000000 -1.000000 -0.000000
vn 0.000000 -1.000000 0.000000
vn 0.000000 -1.000000 0.000000
vn 0.000000 -1.000000 0.000000
vn 0.000000 -1.000000 0.000000
vn 0.000000 -1.000000 0.000000
vn 0.000000 -1.000000 0.000000
vn 0.000000 -1.000000 0.000000
vn 0.000000 -1.000000 0.000000
vn 0.000000 -1.000000 0.000000
vn 0.000000 -1.000000 0.000000
vn 0.000000 -1.000000 -0.000000
vn 0.000000 -1.000000 0.000000
vn 0.000000 -1.000000 -0.000000
vn 0.000000 -1.000000 -0.000000
vn 0.000000 -1.000000 0.000000
vn 0.000000 -1.000000 0.000000
vn 0.000000 1.000000 0.000000
vn 0.000000 1.000000 0.000000
vn 0.000000 1.000000 -0.000000
vn 0.000000 1.000000 0.000000
vn 0.000000 1.000000 0.000000
vn 0.000000 1.000000 0.000000
vn 0.000000 1.000000 0.000000
vn 0.000000 1.000000 0.000000
vn 0.000000 1.000000 0.000000
vn 0.000000 1.000000 0.000000
vn 0.000000 1.000000 0.000000
vn 0.000000 1.000000 -0.000000
vn 0.000000 1.000000 -0.000000
vn 0.000000 1.000000 0.000000
vn 0.000000 1.000000 0.000000
vn 0.000000 1.000000 0.000000
vn 0.000000 1.000000 -0.000000
vn 0.000000 1.000000 -0.000000
vn 0.000000 1.000000 0.000000
vn 0.000000 1.000000 0.000000
vn 0.000000 1.000000 0.000000
vn 0.000000 0.500000 0.866025
vn 0.000000 0.500000 0.866025
vn 0.000000 0.500000 0.866025
vn 0.000000 0.500000 0.866025
vn 0.000000 0.866025 -0.500000
vn 0.000000 0.866025 -0.500000
vn 0.000000 0.866025 -0.500000
vn 0.000000 0.866025 -0.500000
vn 0.000000 -0.500000 -0.866025
vn 0.000000 -0.500000 -0.866025
vn 0.000000 -0.500000 -0.866025
vn 0.000000 -0.500000 -0.866025
vn 0.000000 -0.866025 0.500000
vn 0.000000 -0.866025 0.500000
vn 0.000000 -0.866025 0.500000
vn 0.000000 -0.866025 0.500000
vn 1.000000 -0.000000 0.000000
vn 1.000000 -0.000000 0.000000
vn 1.000000 -0.000000 0.000000
vn 1.000000 -0.000000 0.000000
vn -1.000000 0.000000 0.000000
vn -1.000000 0.000000 0.000000
vn -1.000000 0.000000 0.000000
vn -1.000000 0.000000 0.000000
vn 0.000000 0.500000 0.866026
vn 0.000000 0.500000 0.866026
vn 0.000000 0.500000 0.866026
vn 0.000000 0.500000 0.866026
vn 0.000000 0.866024 -0.500002
vn 0.000000 0.866024 -0.500002
vn 0.000000 0.866024 -0.500002
vn 0.000000 0.866024 -0.500002
vn 0.000000 -0.500000 -0.866025
vn 0.000000 -0.500000 -0.866025
vn 0.000000 -0.500000 -0.866025
vn 0.000000 -0.500000 -0.866025
vn 0.000000 -0.866025 0.500001
vn 0.000000 -0.866025 0.500001
vn 0.000000 -0.866025 0.500001
vn 0.000000 -0.866025 0.500001
vn 1.000000 0.000000 0.000000
vn 1.000000 0.000000 0.000000
vn 1.000000 0.000000 0.000000
vn 1.000000 0.000000 0.000000
vn -1.000000 0.000000 0.000000
vn -1.000000 0.000000 0.000000
vn -1.000000 0.000000 0.000000
vn -1.000000 0.000000 0.000000
vn 0.951266 0.000000 -0.308372
vn 0.809340 0.000000 -0.587340
vn 0.831472 0.000000 -0.555566
vn 0.964818 0.000000 -0.262918
vn 0.588082 0.000000 -0.808801
vn 0.608966 0.000000 -0.793196
vn 0.309155 0.000000 -0.951012
vn 0.319018 0.000000 -0.947749
vn -0.000092 0.000000 -1.000000
vn -0.006692 0.000000 -0.999978
vn -0.309321 0.000000 -0.950958
vn -0.330875 0.000000 -0.943675
vn -0.588201 0.000000 -0.808715
vn -0.617082 0.000000 -0.786899
vn -0.809402 0.000000 -0.587256
vn -0.835460 0.000000 -0.549551
vn -0.951281 0.000000 -0.308324
vn -0.965838 0.000000 -0.259146
vn -1.000000 0.000000 0.000729
vn -0.998584 0.000000 0.053194
vn -0.950852 0.000000 0.309645
vn -0.934439 0.000000 0.356122
vn -0.808706 0.000000 0.588213
vn -0.783661 0.000000 0.621189
vn -0.587503 0.000000 0.809222
vn -0.564088 0.000000 0.825714
vn -0.308887 0.000000 0.951099
vn -0.297810 0.000000 0.954625
vn -0.000087 0.000000 1.000000
vn -0.007487 0.000000 0.999972
vn 0.308729 0.000000 0.951150
vn 0.284736 0.000000 0.958606
vn 0.587387 0.000000 0.809306
vn 0.555421 0.000000 0.831569
vn 0.808643 0.000000 0.588300
vn 0.779522 0.000000 0.626375
vn 0.950834 -0.000000 0.309701
vn 0.933393 -0.000000 0.358855
vn 1.000000 -0.000000 0.000736
vn 0.998613 -0.000000 0.052647
vn 0.000000 -1.000000 0.000000
vn 0.000000 -1.000000 0.000000
vn 0.000000 -1.000000 0.000000
vn 0.000000 -1.000000 0.000000
vn 0.000000 -1.000000 0.000000
vn 0.000000 -1.000000 0.000000
vn 0.000000 -1.000000 0.000000
vn 0.000000 -1.000000 0.000000
vn 0.000000 -1.000000 0.000000
vn 0.000000 -1.000000 0.000000
vn 0.000000 -1.000000 0.000000
vn 0.000000 -1.000000 0.000000
vn 0.000000 -1.000000 0.000000
vn 0.000000 -1.000000 0.000000
vn 0.000000 -1.000000 0.000000
vn 0.000000 -1.000000 0.000000
vn 0.000000 -1.000000 0.000000
vn 0.000000 -1.000000 0.000000
vn 0.000000 -1.000000 0.000000
vn 0.000000 -1.000000 0.000000
vn 0.000000 -1.000000 0.000000
s 1
g pCylinder3
usemtl lambert2SG
f 1/1/1 2/2/2 22/3/3 21/4/4
f 2/2/2 3/5/5 23/6/6 22/3/3
f 3/5/5 4/7/7 24/8/8 23/6/6
f 4/7/7 5/9/9 25/10/10 24/8/8
f 5/9/9 6/11/11 26/12/12 25/10/10
f 6/11/11 7/13/13 27/14/14 26/12/12
f 7/13/13 8/15/15 28/16/16 27/14/14
f 8/15/15 9/17/17 29/18/18 28/16/16
f 9/17/17 10/19/19 30/20/20 29/18/18
f 10/19/19 11/21/21 31/22/22 30/20/20
f 11/21/21 12/23/23 32/24/24 31/22/22
f 12/23/23 13/25/25 33/26/26 32/24/24
f 13/25/25 14/27/27 34/28/28 33/26/26
f 14/27/27 15/29/29 35/30/30 34/28/28
f 15/29/29 16/31/31 36/32/32 35/30/30
f 16/31/31 17/33/33 37/34/34 36/32/32
f 17/33/33 18/35/35 38/36/36 37/34/34
f 18/35/35 19/37/37 39/38/38 38/36/36
f 19/37/37 20/39/39 40/40/40 39/38/38
f 20/39/39 1/1/1 21/4/4 40/40/40
s 2
f 2/2/41 1/1/42 41/41/43
f 3/5/44 2/2/41 41/41/43
f 4/7/45 3/5/44 41/41/43
f 5/9/46 4/7/45 41/41/43
f 6/11/47 5/9/46 41/41/43
f 7/13/48 6/11/47 41/41/43
f 8/15/49 7/13/48 41/41/43
f 9/17/50 8/15/49 41/41/43
f 10/19/51 9/17/50 41/41/43
f 11/21/52 10/19/51 41/41/43
f 12/23/53 11/21/52 41/41/43
f 13/25/54 12/23/53 41/41/43
f 14/27/55 13/25/54 41/41/43
f 15/29/56 14/27/55 41/41/43
f 16/31/57 15/29/56 41/41/43
f 17/33/58 16/31/57 41/41/43
f 18/35/59 17/33/58 41/41/43
f 19/37/60 18/35/59 41/41/43
f 20/39/61 19/37/60 41/41/43
f 1/1/42 20/39/61 41/41/43
s 3
f 21/4/62 22/3/63 42/42/64
f 22/3/63 23/6/65 42/42/64
f 23/6/65 24/8/66 42/42/64
f 24/8/66 25/10/67 42/42/64
f 25/10/67 26/12/68 42/42/64
f 26/12/68 27/14/69 42/42/64
f 27/14/69 28/16/70 42/42/64
f 28/16/70 29/18/71 42/42/64
f 29/18/71 30/20/72 42/42/64
f 30/20/72 31/22/73 42/42/64
f 31/22/73 32/24/74 42/42/64
f 32/24/74 33/26/75 42/42/64
f 33/26/75 34/28/76 42/42/64
f 34/28/76 35/30/77 42/42/64
f 35/30/77 36/32/78 42/42/64
f 36/32/78 37/34/79 42/42/64
f 37/34/79 38/36/80 42/42/64
f 38/36/80 39/38/81 42/42/64
f 39/38/81 40/40/82 42/42/64
f 40/40/82 21/4/62 42/42/64
s off
usemtl lambert4SG
f 43/43/83 44/44/84 46/45/85 45/46/86
f 45/46/87 46/45/88 48/47/89 47/48/90
f 47/48/91 48/47/92 50/49/93 49/50/94
f 49/50/95 50/49/96 44/51/97 43/52/98
f 44/44/99 50/53/100 48/54/101 46/45/102
f 49/55/103 43/43/104 45/46/105 47/56/106
usemtl lambert5SG
f 51/57/107 52/58/108 54/59/109 53/60/110
f 53/60/111 54/59/112 56/61/113 55/62/114
f 55/62/115 56/61/116 58/63/117 57/64/118
f 57/64/119 58/63/120 52/65/121 51/66/122
f 52/58/123 58/67/124 56/68/125 54/59/126
f 57/69/127 51/57/128 53/60/129 55/70/130
s 4
usemtl lambert3SG
f 59/71/131 60/72/132 80/73/133 81/74/134
f 60/72/132 61/75/135 82/76/136 80/73/133
f 61/75/135 62/77/137 83/78/138 82/76/136
f 62/77/137 63/79/139 84/80/140 83/78/138
f 63/79/139 64/81/141 85/82/142 84/80/140
f 64/81/141 65/83/143 86/84/144 85/82/142
f 65/83/143 66/85/145 87/86/146 86/84/144
f 66/85/145 67/87/147 88/88/148 87/86/146
f 67/87/147 68/89/149 89/90/150 88/88/148
f 68/89/149 69/91/151 90/92/152 89/90/150
f 69/91/151 70/93/153 91/94/154 90/92/152
f 70/93/153 71/95/155 92/96/156 91/94/154
f 71/95/155 72/97/157 93/98/158 92/96/156
f 72/97/157 73/99/159 94/100/160 93/98/158
f 73/99/159 74/101/161 95/102/162 94/100/160
f 74/101/161 75/103/163 96/104/164 95/102/162
f 75/103/163 76/105/165 97/106/166 96/104/164
f 76/105/165 77/107/167 98/108/168 97/106/166
f 77/107/167 78/109/169 99/110/170 98/108/168
f 78/109/169 59/111/131 81/112/134 99/110/170
s 5
f 60/113/171 59/114/172 79/115/173
f 61/116/174 60/113/171 79/115/173
f 62/117/175 61/116/174 79/115/173
f 63/118/176 62/117/175 79/115/173
f 64/119/177 63/118/176 79/115/173
f 65/120/178 64/119/177 79/115/173
f 66/121/179 65/120/178 79/115/173
f 67/122/180 66/121/179 79/115/173
f 68/123/181 67/122/180 79/115/173
f 69/124/182 68/123/181 79/115/173
f 70/125/183 69/124/182 79/115/173
f 71/126/184 70/125/183 79/115/173
f 72/127/185 71/126/184 79/115/173
f 73/128/186 72/127/185 79/115/173
f 74/129/187 73/128/186 79/115/173
f 75/130/188 74/129/187 79/115/173
f 76/131/189 75/130/188 79/115/173
f 77/132/190 76/131/189 79/115/173
f 78/133/191 77/132/190 79/115/173
f 59/114/172 78/133/191 79/115/173
