# This file uses centimeters as units for non-parametric coordinates.

mtllib ventanaSup.mtl
g default
v -6.550000 13.000000 1.000000
v -6.450000 13.000000 1.000000
v -6.550000 16.000000 1.000000
v -6.450000 16.000000 1.000000
v -6.550000 16.000000 -6.000000
v -6.450000 16.000000 -6.000000
v -6.550000 13.000000 -6.000000
v -6.450000 13.000000 -6.000000
v -5.950000 13.000000 1.550000
v -1.250000 13.000000 1.550000
v -5.950000 16.000000 1.550000
v -1.250000 16.000000 1.550000
v -5.950000 16.000000 1.450000
v -1.250000 16.000000 1.450000
v -5.950000 13.000000 1.450000
v -1.250000 13.000000 1.450000
v -6.550000 13.000000 -7.000000
v -6.450000 13.000000 -7.000000
v -6.550000 16.000000 -7.000000
v -6.450000 16.000000 -7.000000
v -6.550000 16.000000 -14.000000
v -6.450000 16.000000 -14.000000
v -6.550000 13.000000 -14.000000
v -6.450000 13.000000 -14.000000
v -6.550000 13.000000 -15.000000
v -6.450000 13.000000 -15.000000
v -6.550000 16.000000 -15.000000
v -6.450000 16.000000 -15.000000
v -6.550000 16.000000 -22.000000
v -6.450000 16.000000 -22.000000
v -6.550000 13.000000 -22.000000
v -6.450000 13.000000 -22.000000
v -6.550000 13.000000 -31.000000
v -6.450000 13.000000 -31.000000
v -6.550000 16.000000 -31.000000
v -6.450000 16.000000 -31.000000
v -6.550000 16.000000 -38.000000
v -6.450000 16.000000 -38.000000
v -6.550000 13.000000 -38.000000
v -6.450000 13.000000 -38.000000
v 5.283409 13.000000 1.550000
v 9.983409 13.000000 1.550000
v 5.283409 16.000000 1.550000
v 9.983409 16.000000 1.550000
v 5.283409 16.000000 1.450000
v 9.983409 16.000000 1.450000
v 5.283409 13.000000 1.450000
v 9.983409 13.000000 1.450000
v -0.250000 13.000000 1.550000
v 4.250000 13.000000 1.550000
v -0.250000 16.000000 1.550000
v 4.250000 16.000000 1.550000
v -0.250000 16.000000 1.450000
v 4.250000 16.000000 1.450000
v -0.250000 13.000000 1.450000
v 4.250000 13.000000 1.450000
v -6.550000 13.000000 -39.000000
v -6.450000 13.000000 -39.000000
v -6.550000 16.000000 -39.000000
v -6.450000 16.000000 -39.000000
v -6.550000 16.000000 -44.000000
v -6.450000 16.000000 -44.000000
v -6.550000 13.000000 -44.000000
v -6.450000 13.000000 -44.000000
vt 0.375000 0.000000
vt 0.625000 0.000000
vt 0.375000 0.250000
vt 0.625000 0.250000
vt 0.875000 0.000000
vt 0.875000 0.250000
vt 0.125000 0.000000
vt 0.125000 0.250000
vt 0.375000 0.000000
vt 0.625000 0.000000
vt 0.625000 0.250000
vt 0.375000 0.250000
vt 0.625000 0.500000
vt 0.375000 0.500000
vt 0.625000 0.750000
vt 0.375000 0.750000
vt 0.375000 0.000000
vt 0.625000 0.000000
vt 0.625000 0.250000
vt 0.375000 0.250000
vt 0.875000 0.000000
vt 0.875000 0.250000
vt 0.125000 0.000000
vt 0.125000 0.250000
vt 0.375000 0.000000
vt 0.625000 0.000000
vt 0.625000 0.250000
vt 0.375000 0.250000
vt 0.875000 0.000000
vt 0.875000 0.250000
vt 0.125000 0.000000
vt 0.125000 0.250000
vt 0.375000 0.000000
vt 0.625000 0.000000
vt 0.625000 0.250000
vt 0.375000 0.250000
vt 0.875000 0.000000
vt 0.875000 0.250000
vt 0.125000 0.000000
vt 0.125000 0.250000
vt 0.375000 0.000000
vt 0.625000 0.000000
vt 0.625000 0.250000
vt 0.375000 0.250000
vt 0.625000 0.500000
vt 0.375000 0.500000
vt 0.625000 0.750000
vt 0.375000 0.750000
vt 0.012696 -0.961423
vt 0.987304 -0.961423
vt 0.987304 0.013184
vt 0.012696 0.013184
vt 0.987304 0.987792
vt 0.012696 0.987792
vt 0.987304 1.962399
vt 0.012696 1.962399
vt 0.375000 0.000000
vt 0.625000 0.000000
vt 0.625000 0.250000
vt 0.375000 0.250000
vt 0.875000 0.000000
vt 0.875000 0.250000
vt 0.125000 0.000000
vt 0.125000 0.250000
vn 1.000000 0.000000 0.000000
vn 1.000000 0.000000 0.000000
vn 1.000000 0.000000 0.000000
vn 1.000000 0.000000 0.000000
vn -1.000000 0.000000 0.000000
vn -1.000000 0.000000 0.000000
vn -1.000000 0.000000 0.000000
vn -1.000000 0.000000 0.000000
vn 0.000000 0.000000 1.000000
vn 0.000000 0.000000 1.000000
vn 0.000000 0.000000 1.000000
vn 0.000000 0.000000 1.000000
vn 0.000000 0.000000 -1.000000
vn 0.000000 0.000000 -1.000000
vn 0.000000 0.000000 -1.000000
vn 0.000000 0.000000 -1.000000
vn 1.000000 0.000000 0.000000
vn 1.000000 0.000000 0.000000
vn 1.000000 0.000000 0.000000
vn 1.000000 0.000000 0.000000
vn -1.000000 0.000000 0.000000
vn -1.000000 0.000000 0.000000
vn -1.000000 0.000000 0.000000
vn -1.000000 0.000000 0.000000
vn 1.000000 0.000000 0.000000
vn 1.000000 0.000000 0.000000
vn 1.000000 0.000000 0.000000
vn 1.000000 0.000000 0.000000
vn -1.000000 0.000000 0.000000
vn -1.000000 0.000000 0.000000
vn -1.000000 0.000000 0.000000
vn -1.000000 0.000000 0.000000
vn 1.000000 0.000000 0.000000
vn 1.000000 0.000000 0.000000
vn 1.000000 0.000000 0.000000
vn 1.000000 0.000000 0.000000
vn -1.000000 0.000000 0.000000
vn -1.000000 0.000000 0.000000
vn -1.000000 0.000000 0.000000
vn -1.000000 0.000000 0.000000
vn 0.000000 0.000000 1.000000
vn 0.000000 0.000000 1.000000
vn 0.000000 0.000000 1.000000
vn 0.000000 0.000000 1.000000
vn 0.000000 0.000000 -1.000000
vn 0.000000 0.000000 -1.000000
vn 0.000000 0.000000 -1.000000
vn 0.000000 0.000000 -1.000000
vn 0.000000 0.000000 1.000000
vn 0.000000 0.000000 1.000000
vn 0.000000 0.000000 1.000000
vn 0.000000 0.000000 1.000000
vn 0.000000 0.000000 -1.000000
vn 0.000000 0.000000 -1.000000
vn 0.000000 0.000000 -1.000000
vn 0.000000 0.000000 -1.000000
vn 1.000000 0.000000 0.000000
vn 1.000000 0.000000 0.000000
vn 1.000000 0.000000 0.000000
vn 1.000000 0.000000 0.000000
vn -1.000000 0.000000 0.000000
vn -1.000000 0.000000 0.000000
vn -1.000000 0.000000 0.000000
vn -1.000000 0.000000 0.000000
s off
g pCube6
usemtl phong1SG
f 2/2/1 8/5/2 6/6/3 4/4/4
f 7/7/5 1/1/6 3/3/7 5/8/8
f 9/9/9 10/10/10 12/11/11 11/12/12
f 13/14/13 14/13/14 16/15/15 15/16/16
f 18/18/17 24/21/18 22/22/19 20/19/20
f 23/23/21 17/17/22 19/20/23 21/24/24
f 26/26/25 32/29/26 30/30/27 28/27/28
f 31/31/29 25/25/30 27/28/31 29/32/32
f 34/34/33 40/37/34 38/38/35 36/35/36
f 39/39/37 33/33/38 35/36/39 37/40/40
f 41/41/41 42/42/42 44/43/43 43/44/44
f 45/46/45 46/45/46 48/47/47 47/48/48
f 49/49/49 50/50/50 52/51/51 51/52/52
f 53/54/53 54/53/54 56/55/55 55/56/56
f 58/58/57 64/61/58 62/62/59 60/59/60
f 63/63/61 57/57/62 59/60/63 61/64/64
