# This file uses centimeters as units for non-parametric coordinates.

mtllib ventanaInf.mtl
g default
v -6.550000 4.000000 -23.000000
v -6.450000 4.000000 -23.000000
v -6.550000 10.000000 -23.000000
v -6.450000 10.000000 -23.000000
v -6.550000 10.000000 -30.000000
v -6.450000 10.000000 -30.000000
v -6.550000 4.000000 -30.000000
v -6.450000 4.000000 -30.000000
v -6.550000 4.000000 -7.000000
v -6.450000 4.000000 -7.000000
v -6.550000 10.000000 -7.000000
v -6.450000 10.000000 -7.000000
v -6.550000 10.000000 -14.000000
v -6.450000 10.000000 -14.000000
v -6.550000 4.000000 -14.000000
v -6.450000 4.000000 -14.000000
v -6.550000 4.000000 -31.000000
v -6.450000 4.000000 -31.000000
v -6.550000 10.000000 -31.000000
v -6.450000 10.000000 -31.000000
v -6.550000 10.000000 -38.000000
v -6.450000 10.000000 -38.000000
v -6.550000 4.000000 -38.000000
v -6.450000 4.000000 -38.000000
v -6.550000 4.000000 -15.000000
v -6.450000 4.000000 -15.000000
v -6.550000 10.000000 -15.000000
v -6.450000 10.000000 -15.000000
v -6.550000 10.000000 -22.000000
v -6.450000 10.000000 -22.000000
v -6.550000 4.000000 -22.000000
v -6.450000 4.000000 -22.000000
vt 0.015782 -0.952844
vt 0.984218 -0.952844
vt 0.984218 0.015593
vt 0.015782 0.015593
vt 1.952655 -0.952844
vt 1.952655 0.015593
vt -0.952655 -0.952844
vt -0.952655 0.015593
vt 0.017766 -0.947046
vt 0.982234 -0.947046
vt 0.982234 0.017422
vt 0.017766 0.017422
vt 1.946702 -0.947046
vt 1.946702 0.017422
vt -0.946702 -0.947046
vt -0.946702 0.017422
vt 0.026696 -0.923145
vt 0.973304 -0.923145
vt 0.973304 0.023463
vt 0.026696 0.023463
vt 1.919912 -0.923145
vt 1.919912 0.023463
vt -0.919912 -0.923145
vt -0.919912 0.023463
vt 0.017969 -0.953172
vt 0.982031 -0.953172
vt 0.982031 0.010890
vt 0.017969 0.010890
vt 1.946094 -0.953172
vt 1.946094 0.010890
vt -0.946094 -0.953172
vt -0.946094 0.010890
vn 1.000000 0.000000 0.000000
vn 1.000000 0.000000 0.000000
vn 1.000000 0.000000 0.000000
vn 1.000000 0.000000 0.000000
vn -1.000000 0.000000 0.000000
vn -1.000000 0.000000 0.000000
vn -1.000000 0.000000 0.000000
vn -1.000000 0.000000 0.000000
vn 1.000000 0.000000 0.000000
vn 1.000000 0.000000 0.000000
vn 1.000000 0.000000 0.000000
vn 1.000000 0.000000 0.000000
vn -1.000000 0.000000 0.000000
vn -1.000000 0.000000 0.000000
vn -1.000000 0.000000 0.000000
vn -1.000000 0.000000 0.000000
vn 1.000000 0.000000 0.000000
vn 1.000000 0.000000 0.000000
vn 1.000000 0.000000 0.000000
vn 1.000000 0.000000 0.000000
vn -1.000000 0.000000 0.000000
vn -1.000000 0.000000 0.000000
vn -1.000000 0.000000 0.000000
vn -1.000000 0.000000 0.000000
vn 1.000000 0.000000 0.000000
vn 1.000000 0.000000 0.000000
vn 1.000000 0.000000 0.000000
vn 1.000000 0.000000 0.000000
vn -1.000000 0.000000 0.000000
vn -1.000000 0.000000 0.000000
vn -1.000000 0.000000 0.000000
vn -1.000000 0.000000 0.000000
s off
g polySurface3
usemtl phong2SG
f 2/2/1 8/5/2 6/6/3 4/3/4
f 7/7/5 1/1/6 3/4/7 5/8/8
f 10/10/9 16/13/10 14/14/11 12/11/12
f 15/15/13 9/9/14 11/12/15 13/16/16
f 18/18/17 24/21/18 22/22/19 20/19/20
f 23/23/21 17/17/22 19/20/23 21/24/24
f 26/26/25 32/29/26 30/30/27 28/27/28
f 31/31/29 25/25/30 27/28/31 29/32/32
