# This file uses centimeters as units for non-parametric coordinates.

mtllib banca.mtl
g default
v -2.015000 -1.000000 0.500000
v -1.885000 -1.000000 0.500000
v -2.015000 -0.400000 0.500000
v -1.885000 -0.400000 0.500000
v -2.015000 -0.400000 -0.600000
v -1.885000 -0.400000 -0.600000
v -2.015000 -1.000000 -0.600000
v -1.885000 -1.000000 -0.600000
v -2.015000 0.632973 -0.599839
v 2.015000 0.632973 -0.598500
v -2.015000 0.679957 -0.593396
v 2.015000 0.679957 -0.593396
v -2.015000 0.508947 -1.063243
v 2.015000 0.508947 -1.063243
v -2.015000 0.461963 -1.046142
v 2.015000 0.461963 -1.046142
v -2.015000 -0.400000 0.500000
v -1.885000 -0.400000 0.500000
v -2.015000 0.400000 -0.500000
v -1.885000 0.400000 -0.500000
v -2.015000 -0.400000 -0.500000
v -1.885000 -0.400000 -0.500000
v -2.015000 0.400000 -0.258327
v -2.015000 0.375008 -0.101270
v -1.885000 0.375008 -0.101270
v -1.885000 0.400000 -0.258327
v -2.015000 0.325013 0.049603
v -2.015000 0.253840 0.182750
v -1.885000 0.253840 0.182750
v -1.885000 0.325013 0.049603
v -2.015000 0.146200 0.317300
v -2.015000 0.039683 0.406266
v -1.885000 0.039683 0.406266
v -1.885000 0.146200 0.317300
v -2.015000 -0.081016 0.468759
v -2.015000 -0.206662 0.500000
v -1.885000 -0.206662 0.500000
v -1.885000 -0.081016 0.468759
v -1.885000 -0.395000 0.500000
v 1.885000 -0.395000 0.500000
v -1.885000 -0.285000 0.500000
v 1.885000 -0.285000 0.500000
v -1.885000 -0.285000 -0.500000
v 1.885000 -0.285000 -0.500000
v -1.885000 -0.395000 -0.500000
v 1.885000 -0.395000 -0.500000
v 1.885000 -1.000000 0.500000
v 2.015000 -1.000000 0.500000
v 1.885000 -0.400000 0.500000
v 2.015000 -0.400000 0.500000
v 1.885000 -0.400000 -0.600000
v 2.015000 -0.400000 -0.600000
v 1.885000 -1.000000 -0.600000
v 2.015000 -1.000000 -0.600000
v -2.015000 -0.405000 -0.500000
v 2.015000 -0.405000 -0.500000
v -2.015000 0.675000 -0.500000
v 2.015000 0.675000 -0.500000
v -2.015000 0.675000 -0.600000
v 2.015000 0.675000 -0.600000
v -2.015000 -0.405000 -0.600000
v 2.015000 -0.405000 -0.600000
v 1.885000 -0.400000 0.500000
v 2.015000 -0.400000 0.500000
v 1.885000 0.400000 -0.500000
v 2.015000 0.400000 -0.500000
v 1.885000 -0.400000 -0.500000
v 2.015000 -0.400000 -0.500000
v 1.885000 0.400000 -0.258327
v 1.885000 0.375008 -0.101270
v 2.015000 0.375008 -0.101270
v 2.015000 0.400000 -0.258327
v 1.885000 0.325013 0.049603
v 1.885000 0.253840 0.182750
v 2.015000 0.253840 0.182750
v 2.015000 0.325013 0.049603
v 1.885000 0.146200 0.317300
v 1.885000 0.039683 0.406266
v 2.015000 0.039683 0.406266
v 2.015000 0.146200 0.317300
v 1.885000 -0.081016 0.468759
v 1.885000 -0.206662 0.500000
v 2.015000 -0.206662 0.500000
v 2.015000 -0.081016 0.468759
vt 0.375000 0.000000
vt 0.625000 0.000000
vt 0.625000 0.250000
vt 0.375000 0.250000
vt 0.625000 0.500000
vt 0.375000 0.500000
vt 0.625000 0.750000
vt 0.375000 0.750000
vt 0.625000 1.000000
vt 0.375000 1.000000
vt 0.875000 0.000000
vt 0.875000 0.250000
vt 0.125000 0.000000
vt 0.125000 0.250000
vt 0.016178 -0.956450
vt 0.983822 -0.956450
vt 0.983822 0.011195
vt 0.016178 0.011195
vt 0.983822 0.978840
vt 0.016178 0.978840
vt 0.983822 1.946485
vt 0.016178 1.946485
vt 0.983822 2.914129
vt 0.016178 2.914129
vt 1.951467 -0.956450
vt 1.951467 0.011195
vt -0.951467 -0.956450
vt -0.951467 0.011195
vt 0.375000 0.000000
vt 0.625000 0.000000
vt 0.625000 0.060418
vt 0.375000 0.060418
vt 0.375000 0.439582
vt 0.625000 0.439582
vt 0.625000 0.500000
vt 0.375000 0.500000
vt 0.625000 0.750000
vt 0.375000 0.750000
vt 0.625000 1.000000
vt 0.375000 1.000000
vt 0.875000 0.000000
vt 0.875000 0.250000
vt 0.814581 0.250000
vt 0.775317 0.242190
vt 0.737599 0.226566
vt 0.704312 0.204325
vt 0.670675 0.170687
vt 0.648434 0.137401
vt 0.632810 0.099683
vt 0.125000 0.000000
vt 0.367190 0.099683
vt 0.351566 0.137401
vt 0.329325 0.170688
vt 0.295687 0.204325
vt 0.262401 0.226566
vt 0.224683 0.242190
vt 0.185418 0.250000
vt 0.125000 0.250000
vt 0.625000 0.283637
vt 0.375000 0.283637
vt 0.375000 0.216363
vt 0.625000 0.216363
vt 0.625000 0.392507
vt 0.375000 0.392507
vt 0.375000 0.339165
vt 0.625000 0.339166
vt 0.625000 0.160834
vt 0.375000 0.160834
vt 0.375000 0.107493
vt 0.625000 0.107493
vt 0.016817 -0.951924
vt 0.983183 -0.951924
vt 0.983183 0.014442
vt 0.016817 0.014442
vt 0.983183 0.980808
vt 0.016817 0.980808
vt 0.983183 1.947174
vt 0.016817 1.947174
vt 0.983183 2.913540
vt 0.016817 2.913540
vt 1.949549 -0.951924
vt 1.949549 0.014442
vt -0.949549 -0.951924
vt -0.949549 0.014442
vt 0.375000 0.000000
vt 0.625000 0.000000
vt 0.625000 0.250000
vt 0.375000 0.250000
vt 0.625000 0.500000
vt 0.375000 0.500000
vt 0.625000 0.750000
vt 0.375000 0.750000
vt 0.625000 1.000000
vt 0.375000 1.000000
vt 0.875000 0.000000
vt 0.875000 0.250000
vt 0.125000 0.000000
vt 0.125000 0.250000
vt 0.016457 -0.960458
vt 0.983543 -0.960458
vt 0.983543 0.006629
vt 0.016457 0.006629
vt 0.983543 0.973715
vt 0.016457 0.973715
vt 0.983543 1.940802
vt 0.016457 1.940802
vt 0.983543 2.907889
vt 0.016457 2.907889
vt 1.950630 -0.960458
vt 1.950630 0.006629
vt -0.950630 -0.960458
vt -0.950630 0.006629
vt 0.375000 0.000000
vt 0.625000 0.000000
vt 0.625000 0.060418
vt 0.375000 0.060418
vt 0.375000 0.439582
vt 0.625000 0.439582
vt 0.625000 0.500000
vt 0.375000 0.500000
vt 0.625000 0.750000
vt 0.375000 0.750000
vt 0.625000 1.000000
vt 0.375000 1.000000
vt 0.875000 0.000000
vt 0.875000 0.250000
vt 0.814581 0.250000
vt 0.775317 0.242190
vt 0.737599 0.226566
vt 0.704312 0.204325
vt 0.670675 0.170687
vt 0.648434 0.137401
vt 0.632810 0.099683
vt 0.125000 0.000000
vt 0.367190 0.099683
vt 0.351566 0.137401
vt 0.329325 0.170688
vt 0.295687 0.204325
vt 0.262401 0.226566
vt 0.224683 0.242190
vt 0.185418 0.250000
vt 0.125000 0.250000
vt 0.625000 0.283637
vt 0.375000 0.283637
vt 0.375000 0.216363
vt 0.625000 0.216363
vt 0.625000 0.392507
vt 0.375000 0.392507
vt 0.375000 0.339165
vt 0.625000 0.339166
vt 0.625000 0.160834
vt 0.375000 0.160834
vt 0.375000 0.107493
vt 0.625000 0.107493
vn 0.000000 0.000000 1.000000
vn 0.000000 0.000000 1.000000
vn 0.000000 0.000000 1.000000
vn 0.000000 0.000000 1.000000
vn 0.000000 1.000000 0.000000
vn 0.000000 1.000000 0.000000
vn 0.000000 1.000000 0.000000
vn 0.000000 1.000000 0.000000
vn 0.000000 0.000000 -1.000000
vn 0.000000 0.000000 -1.000000
vn 0.000000 0.000000 -1.000000
vn 0.000000 0.000000 -1.000000
vn 0.000000 -1.000000 0.000000
vn 0.000000 -1.000000 0.000000
vn 0.000000 -1.000000 0.000000
vn 0.000000 -1.000000 0.000000
vn 1.000000 0.000000 0.000000
vn 1.000000 0.000000 0.000000
vn 1.000000 0.000000 0.000000
vn 1.000000 0.000000 0.000000
vn -1.000000 0.000000 0.000000
vn -1.000000 0.000000 0.000000
vn -1.000000 0.000000 0.000000
vn -1.000000 0.000000 0.000000
vn 0.000000 0.342020 0.939693
vn 0.000000 0.342020 0.939693
vn 0.000000 0.342020 0.939693
vn 0.000000 0.342020 0.939693
vn 0.000000 0.939693 -0.342020
vn 0.000000 0.939693 -0.342020
vn 0.000000 0.939693 -0.342020
vn 0.000000 0.939693 -0.342020
vn 0.000000 -0.342021 -0.939692
vn 0.000000 -0.342021 -0.939692
vn 0.000000 -0.342021 -0.939692
vn 0.000000 -0.342021 -0.939692
vn 0.000000 -0.939693 0.342020
vn 0.000000 -0.939693 0.342020
vn 0.000000 -0.939693 0.342020
vn 0.000000 -0.939693 0.342020
vn 1.000000 0.000000 0.000000
vn 1.000000 0.000000 0.000000
vn 1.000000 0.000000 0.000000
vn 1.000000 0.000000 0.000000
vn -1.000000 0.000001 0.000000
vn -1.000000 0.000001 0.000000
vn -1.000000 0.000001 0.000000
vn -1.000000 0.000001 0.000000
vn 0.000000 0.000000 1.000000
vn 0.000000 0.000000 1.000000
vn 0.000000 0.097471 0.995238
vn 0.000000 0.097471 0.995238
vn 0.000000 0.998041 0.062557
vn 0.000000 0.998041 0.062557
vn 0.000000 1.000000 0.000000
vn 0.000000 1.000000 0.000000
vn 0.000000 0.000000 -1.000000
vn 0.000000 0.000000 -1.000000
vn 0.000000 0.000000 -1.000000
vn 0.000000 0.000000 -1.000000
vn 0.000000 -1.000000 0.000000
vn 0.000000 -1.000000 0.000000
vn 0.000000 -1.000000 0.000000
vn 0.000000 -1.000000 0.000000
vn 1.000000 0.000000 0.000000
vn 1.000000 0.000000 0.000000
vn 1.000000 0.000000 0.000000
vn 1.000000 0.000000 0.000000
vn 1.000000 0.000000 0.000000
vn 1.000000 0.000000 0.000000
vn 1.000000 0.000000 0.000000
vn 1.000000 0.000000 0.000000
vn 1.000000 0.000000 0.000000
vn 1.000000 0.000000 0.000000
vn 1.000000 0.000000 0.000000
vn -1.000000 0.000000 0.000000
vn -1.000000 0.000000 0.000000
vn -1.000000 0.000000 0.000000
vn -1.000000 0.000000 0.000000
vn -1.000000 0.000000 0.000000
vn -1.000000 0.000000 0.000000
vn -1.000000 0.000000 0.000000
vn -1.000000 0.000000 0.000000
vn -1.000000 0.000000 0.000000
vn -1.000000 0.000000 0.000000
vn -1.000000 0.000000 0.000000
vn 0.000000 0.831551 0.555449
vn 0.000000 0.831551 0.555449
vn 0.000000 0.722061 0.691829
vn 0.000000 0.722061 0.691829
vn 0.000000 0.971606 0.236606
vn 0.000000 0.971606 0.236606
vn 0.000000 0.919795 0.392400
vn 0.000000 0.919795 0.392400
vn 0.000000 0.554655 0.832080
vn 0.000000 0.554655 0.832080
vn 0.000000 0.355627 0.934628
vn 0.000000 0.355627 0.934628
vn 0.000000 0.998041 0.062557
vn 0.000000 0.971606 0.236606
vn 0.000000 0.971606 0.236606
vn 0.000000 0.998041 0.062557
vn 0.000000 0.919795 0.392400
vn 0.000000 0.831551 0.555449
vn 0.000000 0.831551 0.555449
vn 0.000000 0.919795 0.392400
vn 0.000000 0.722061 0.691829
vn 0.000000 0.554655 0.832080
vn 0.000000 0.554655 0.832080
vn 0.000000 0.722061 0.691829
vn 0.000000 0.355627 0.934628
vn 0.000000 0.097471 0.995238
vn 0.000000 0.097471 0.995238
vn 0.000000 0.355627 0.934628
vn 0.000000 0.000000 1.000000
vn 0.000000 0.000000 1.000000
vn 0.000000 0.000000 1.000000
vn 0.000000 0.000000 1.000000
vn 0.000000 1.000000 0.000000
vn 0.000000 1.000000 0.000000
vn 0.000000 1.000000 0.000000
vn 0.000000 1.000000 0.000000
vn 0.000000 0.000000 -1.000000
vn 0.000000 0.000000 -1.000000
vn 0.000000 0.000000 -1.000000
vn 0.000000 0.000000 -1.000000
vn 0.000000 -1.000000 0.000000
vn 0.000000 -1.000000 0.000000
vn 0.000000 -1.000000 0.000000
vn 0.000000 -1.000000 0.000000
vn 1.000000 0.000000 0.000000
vn 1.000000 0.000000 0.000000
vn 1.000000 0.000000 0.000000
vn 1.000000 0.000000 0.000000
vn -1.000000 0.000000 0.000000
vn -1.000000 0.000000 0.000000
vn -1.000000 0.000000 0.000000
vn -1.000000 0.000000 0.000000
vn 0.000000 0.000000 1.000000
vn 0.000000 0.000000 1.000000
vn 0.000000 0.000000 1.000000
vn 0.000000 0.000000 1.000000
vn 0.000000 1.000000 0.000000
vn 0.000000 1.000000 0.000000
vn 0.000000 1.000000 0.000000
vn 0.000000 1.000000 0.000000
vn 0.000000 0.000000 -1.000000
vn 0.000000 0.000000 -1.000000
vn 0.000000 0.000000 -1.000000
vn 0.000000 0.000000 -1.000000
vn 0.000000 -1.000000 0.000000
vn 0.000000 -1.000000 0.000000
vn 0.000000 -1.000000 0.000000
vn 0.000000 -1.000000 0.000000
vn 1.000000 0.000000 0.000000
vn 1.000000 0.000000 0.000000
vn 1.000000 0.000000 0.000000
vn 1.000000 0.000000 0.000000
vn -1.000000 0.000000 0.000000
vn -1.000000 0.000000 0.000000
vn -1.000000 0.000000 0.000000
vn -1.000000 0.000000 0.000000
vn 0.000000 0.000000 1.000000
vn 0.000000 0.000000 1.000000
vn 0.000000 0.000000 1.000000
vn 0.000000 0.000000 1.000000
vn 0.000000 1.000000 0.000000
vn 0.000000 1.000000 0.000000
vn 0.000000 1.000000 0.000000
vn 0.000000 1.000000 0.000000
vn 0.000000 0.000000 -1.000000
vn 0.000000 0.000000 -1.000000
vn 0.000000 0.000000 -1.000000
vn 0.000000 0.000000 -1.000000
vn 0.000000 -1.000000 0.000000
vn 0.000000 -1.000000 0.000000
vn 0.000000 -1.000000 0.000000
vn 0.000000 -1.000000 0.000000
vn 1.000000 0.000000 0.000000
vn 1.000000 0.000000 0.000000
vn 1.000000 0.000000 0.000000
vn 1.000000 0.000000 0.000000
vn -1.000000 0.000000 0.000000
vn -1.000000 0.000000 0.000000
vn -1.000000 0.000000 0.000000
vn -1.000000 0.000000 0.000000
vn 0.000000 0.000000 1.000000
vn 0.000000 0.000000 1.000000
vn 0.000000 0.097471 0.995238
vn 0.000000 0.097471 0.995238
vn 0.000000 0.998041 0.062557
vn 0.000000 0.998041 0.062557
vn 0.000000 1.000000 0.000000
vn 0.000000 1.000000 0.000000
vn 0.000000 0.000000 -1.000000
vn 0.000000 0.000000 -1.000000
vn 0.000000 0.000000 -1.000000
vn 0.000000 0.000000 -1.000000
vn 0.000000 -1.000000 0.000000
vn 0.000000 -1.000000 0.000000
vn 0.000000 -1.000000 0.000000
vn 0.000000 -1.000000 0.000000
vn 1.000000 0.000000 0.000000
vn 1.000000 0.000000 0.000000
vn 1.000000 0.000000 0.000000
vn 1.000000 0.000000 0.000000
vn 1.000000 0.000000 0.000000
vn 1.000000 0.000000 0.000000
vn 1.000000 0.000000 0.000000
vn 1.000000 0.000000 0.000000
vn 1.000000 0.000000 0.000000
vn 1.000000 0.000000 0.000000
vn 1.000000 0.000000 0.000000
vn -1.000000 0.000000 0.000000
vn -1.000000 0.000000 0.000000
vn -1.000000 0.000000 0.000000
vn -1.000000 0.000000 0.000000
vn -1.000000 0.000000 0.000000
vn -1.000000 0.000000 0.000000
vn -1.000000 0.000000 0.000000
vn -1.000000 0.000000 0.000000
vn -1.000000 0.000000 0.000000
vn -1.000000 0.000000 0.000000
vn -1.000000 0.000000 0.000000
vn 0.000000 0.831551 0.555449
vn 0.000000 0.831551 0.555449
vn 0.000000 0.722061 0.691829
vn 0.000000 0.722061 0.691829
vn 0.000000 0.971606 0.236606
vn 0.000000 0.971606 0.236606
vn 0.000000 0.919795 0.392400
vn 0.000000 0.919795 0.392400
vn 0.000000 0.554655 0.832080
vn 0.000000 0.554655 0.832080
vn 0.000000 0.355627 0.934628
vn 0.000000 0.355627 0.934628
vn 0.000000 0.998041 0.062557
vn 0.000000 0.971606 0.236606
vn 0.000000 0.971606 0.236606
vn 0.000000 0.998041 0.062557
vn 0.000000 0.919795 0.392400
vn 0.000000 0.831551 0.555449
vn 0.000000 0.831551 0.555449
vn 0.000000 0.919795 0.392400
vn 0.000000 0.722061 0.691829
vn 0.000000 0.554655 0.832080
vn 0.000000 0.554655 0.832080
vn 0.000000 0.722061 0.691829
vn 0.000000 0.355627 0.934628
vn 0.000000 0.097471 0.995238
vn 0.000000 0.097471 0.995238
vn 0.000000 0.355627 0.934628
s off
g polySurface12
usemtl banca:lambert8SG
f 1/1/1 2/2/2 4/3/3 3/4/4
f 3/4/5 4/3/6 6/5/7 5/6/8
f 5/6/9 6/5/10 8/7/11 7/8/12
f 7/8/13 8/7/14 2/9/15 1/10/16
f 2/2/17 8/11/18 6/12/19 4/3/20
f 7/13/21 1/1/22 3/4/23 5/14/24
usemtl banca:lambert10SG
f 9/15/25 10/16/26 12/17/27 11/18/28
f 11/18/29 12/17/30 14/19/31 13/20/32
f 13/20/33 14/19/34 16/21/35 15/22/36
f 15/22/37 16/21/38 10/23/39 9/24/40
f 10/16/41 16/25/42 14/26/43 12/17/44
f 15/27/45 9/15/46 11/18/47 13/28/48
usemtl banca:lambert8SG
f 17/29/49 18/30/50 37/31/51 36/32/52
f 23/33/53 26/34/54 20/35/55 19/36/56
f 19/36/57 20/35/58 22/37/59 21/38/60
f 21/38/61 22/37/62 18/39/63 17/40/64
f 18/30/65 22/41/66 20/42/67 26/43/68 25/44/69 30/45/70 29/46/71 34/47/72 33/48/73 38/49/74 37/31/75
f 21/50/76 17/29/77 36/32/78 35/51/79 32/52/80 31/53/81 28/54/82 27/55/83 24/56/84 23/57/85 19/58/86
f 29/59/87 28/60/88 31/61/89 34/62/90
f 25/63/91 24/64/92 27/65/93 30/66/94
f 33/67/95 32/68/96 35/69/97 38/70/98
f 23/33/99 24/64/100 25/63/101 26/34/102
f 27/65/103 28/60/104 29/59/105 30/66/106
f 31/61/107 32/68/108 33/67/109 34/62/110
f 35/69/111 36/32/112 37/31/113 38/70/114
usemtl banca:lambert6SG
f 39/71/115 40/72/116 42/73/117 41/74/118
f 41/74/119 42/73/120 44/75/121 43/76/122
f 43/76/123 44/75/124 46/77/125 45/78/126
f 45/78/127 46/77/128 40/79/129 39/80/130
f 40/72/131 46/81/132 44/82/133 42/73/134
f 45/83/135 39/71/136 41/74/137 43/84/138
usemtl banca:lambert9SG
f 47/85/139 48/86/140 50/87/141 49/88/142
f 49/88/143 50/87/144 52/89/145 51/90/146
f 51/90/147 52/89/148 54/91/149 53/92/150
f 53/92/151 54/91/152 48/93/153 47/94/154
f 48/86/155 54/95/156 52/96/157 50/87/158
f 53/97/159 47/85/160 49/88/161 51/98/162
usemtl banca:lambert7SG
f 55/99/163 56/100/164 58/101/165 57/102/166
f 57/102/167 58/101/168 60/103/169 59/104/170
f 59/104/171 60/103/172 62/105/173 61/106/174
f 61/106/175 62/105/176 56/107/177 55/108/178
f 56/100/179 62/109/180 60/110/181 58/101/182
f 61/111/183 55/99/184 57/102/185 59/112/186
usemtl banca:lambert9SG
f 63/113/187 64/114/188 83/115/189 82/116/190
f 69/117/191 72/118/192 66/119/193 65/120/194
f 65/120/195 66/119/196 68/121/197 67/122/198
f 67/122/199 68/121/200 64/123/201 63/124/202
f 64/114/203 68/125/204 66/126/205 72/127/206 71/128/207 76/129/208 75/130/209 80/131/210 79/132/211 84/133/212 83/115/213
f 67/134/214 63/113/215 82/116/216 81/135/217 78/136/218 77/137/219 74/138/220 73/139/221 70/140/222 69/141/223 65/142/224
f 75/143/225 74/144/226 77/145/227 80/146/228
f 71/147/229 70/148/230 73/149/231 76/150/232
f 79/151/233 78/152/234 81/153/235 84/154/236
f 69/117/237 70/148/238 71/147/239 72/118/240
f 73/149/241 74/144/242 75/143/243 76/150/244
f 77/145/245 78/152/246 79/151/247 80/146/248
f 81/153/249 82/116/250 83/115/251 84/154/252
